<svg xmlns="http://www.w3.org/2000/svg" width="25.942" height="24.029" viewBox="0 0 25.942 24.029">
  <path id="Vector_2_" data-name="Vector (2)" d="M25.618,0H.324A.324.324,0,0,0,0,.324V23.7a.324.324,0,0,0,.324.324H25.618a.324.324,0,0,0,.324-.324V.324A.324.324,0,0,0,25.618,0ZM13.3,23.381V16.457h8.64a.324.324,0,0,0,0-.649H4.007a.324.324,0,1,0,0,.649h8.64v6.924h-12V9.44h8a.324.324,0,0,0,0-.649h-8V.649H25.294V8.791h-8.1V2.956a.324.324,0,1,0-.649,0v7.933a.324.324,0,1,0,.649,0V9.44h8.1V23.381Z" fill="#1a1a1a"/>
</svg>
