<svg id="Group_1269" data-name="Group 1269" xmlns="http://www.w3.org/2000/svg" width="22.785" height="22.764" viewBox="0 0 22.785 22.764">
  <path id="Vector-4" d="M22.422,12.856h-.354V3.907A3.763,3.763,0,0,0,18.319.136,3.718,3.718,0,0,0,16.4.665,2.468,2.468,0,0,0,15.93.329a3.007,3.007,0,0,0-3.264.354L12.473.491a.355.355,0,1,0-.5.5l.421.426L15.957,5.01l.422.426a.349.349,0,0,0,.251.1.368.368,0,0,0,.251-.1.354.354,0,0,0,0-.5l-.193-.2a3.073,3.073,0,0,0,.359-3.286,2.645,2.645,0,0,0-.148-.238,2.991,2.991,0,0,1,1.43-.368A3.051,3.051,0,0,1,21.364,3.9v8.944H.354a.354.354,0,0,0,0,.708H.717c.2,3.9,3.322,8.1,7.425,8.1h.637l-.5.507a.355.355,0,0,0,0,.5.369.369,0,0,0,.251.1.357.357,0,0,0,.256-.108l.991-1H13l.991,1a.356.356,0,0,0,.255.108.369.369,0,0,0,.251-.1.355.355,0,0,0,0-.5l-.5-.507h.637c4.1,0,7.223-4.2,7.425-8.1h.363a.35.35,0,1,0-.009-.7ZM13.163,1.195a2.3,2.3,0,0,1,2.43-.233,1.977,1.977,0,0,1,.471.35,2.13,2.13,0,0,1,.35.475,2.339,2.339,0,0,1-.229,2.448Zm1.471,19.759H8.142c-2.977,0-5.438-2.6-6.349-5.465H15.526a.354.354,0,1,0,0-.708H1.605a8.062,8.062,0,0,1-.175-1.206H21.341C21.139,17.061,18.27,20.953,14.634,20.953Z" transform="translate(0 0)" fill="#1a1a1a"/>
  <g id="Group_1268" data-name="Group 1268" transform="translate(11.392 2.641)">
    <path id="Vector-1" d="M1.422,1.085,1.861.642a.355.355,0,1,0-.5-.5L.92.583a.354.354,0,0,0,0,.5.357.357,0,0,0,.5,0Z" transform="translate(-0.816 -0.035)" fill="#1a1a1a"/>
    <path id="Vector-2" d="M.762,1.767a.36.36,0,0,0,.251-.1l.439-.444a.355.355,0,1,0-.5-.5L.51,1.161a.354.354,0,0,0,0,.5A.349.349,0,0,0,.762,1.767Z" transform="translate(0.744 0.54)" fill="#1a1a1a"/>
    <path id="Vector" d="M.833,1.5l.439-.444a.355.355,0,0,0-.5-.5L.331,1a.354.354,0,0,0,0,.5.369.369,0,0,0,.251.1A.332.332,0,0,0,.833,1.5Z" transform="translate(2.074 1.854)" fill="#1a1a1a"/>
  </g>
</svg>
