<svg xmlns="http://www.w3.org/2000/svg" width="30.77" height="22.764" viewBox="0 0 30.77 22.764">
  <path id="Vector_1_" data-name="Vector (1)" d="M30.286,12.487h-.811V1.926A1.927,1.927,0,0,0,27.548,0H3.216A1.927,1.927,0,0,0,1.29,1.926V12.481H.478A.479.479,0,0,0,0,12.96v9.326a.479.479,0,0,0,.478.478H3.064a.49.49,0,0,0,.43-.26L4.8,19.973H25.968L27.276,22.5a.49.49,0,0,0,.43.26h2.586a.479.479,0,0,0,.478-.478v-9.32A.489.489,0,0,0,30.286,12.487ZM2.253,1.926A.961.961,0,0,1,3.216.963H27.548a.961.961,0,0,1,.963.963V12.481h-1.9v-.9a1.927,1.927,0,0,0-1.926-1.926H16.823a1.9,1.9,0,0,0-1.441.666,1.9,1.9,0,0,0-1.441-.666H6.08a1.927,1.927,0,0,0-1.926,1.926v.9h-1.9ZM5.117,12.487v-.9a.961.961,0,0,1,.963-.963h7.861a.961.961,0,0,1,.963.963v.9Zm10.743-.9a.961.961,0,0,1,.963-.963h7.861a.961.961,0,0,1,.963.963v.9H15.861ZM.963,13.444H29.807V16.23H.963ZM29.8,21.82H27.991l-1.308-2.531a.49.49,0,0,0-.43-.26H4.506a.49.49,0,0,0-.43.26L2.768,21.82H.963V17.193H29.807V21.82Z" fill="#1a1a1a"/>
</svg>
